<svg width="220" height="220" viewBox="0 0 220 220" fill="none" xmlns="http://www.w3.org/2000/svg">
<path d="M28.6036 76.1318C27.1445 69.5591 27.3685 62.7244 29.255 56.2613C31.1415 49.7983 34.6293 43.9162 39.395 39.1604C44.1607 34.4046 50.0501 30.9292 56.5171 29.0562C62.9841 27.1833 69.8193 26.9736 76.3889 28.4465C80.0049 22.7912 84.9863 18.1372 90.874 14.9135C96.7617 11.6898 103.366 10 110.079 10C116.791 10 123.395 11.6898 129.283 14.9135C135.171 18.1372 140.152 22.7912 143.768 28.4465C150.348 26.9672 157.195 27.176 163.672 29.0534C170.149 30.9309 176.047 34.416 180.815 39.1847C185.584 43.9534 189.069 49.8506 190.947 56.3279C192.824 62.8052 193.033 69.6521 191.554 76.2318C197.209 79.8478 201.863 84.8292 205.087 90.7168C208.31 96.6045 210 103.209 210 109.921C210 116.634 208.31 123.238 205.087 129.126C201.863 135.014 197.209 139.995 191.554 143.611C193.026 150.181 192.817 157.016 190.944 163.483C189.071 169.95 185.595 175.839 180.84 180.605C176.084 185.371 170.202 188.859 163.739 190.745C157.276 192.631 150.441 192.856 143.868 191.396C140.257 197.073 135.272 201.747 129.374 204.985C123.476 208.224 116.857 209.921 110.129 209.921C103.4 209.921 96.7809 208.224 90.8832 204.985C84.9855 201.747 80.0002 197.073 76.3889 191.396C69.8193 192.869 62.9841 192.66 56.5171 190.787C50.0501 188.914 44.1607 185.438 39.395 180.682C34.6293 175.927 31.1415 170.045 29.255 163.582C27.3685 157.118 27.1445 150.284 28.6036 143.711C22.9049 140.105 18.211 135.115 14.9583 129.208C11.7057 123.3 10 116.665 10 109.921C10 103.177 11.7057 96.543 14.9583 90.6352C18.211 84.7274 22.9049 79.7383 28.6036 76.1318Z" stroke="white" stroke-width="20" stroke-linecap="round" stroke-linejoin="round"/>
<path d="M70.0913 109.92H150.067" stroke="white" stroke-width="20" stroke-linecap="round" stroke-linejoin="round"/>
</svg>
