<svg width="194" height="194" viewBox="0 0 194 194" fill="none" xmlns="http://www.w3.org/2000/svg">
<path fill-rule="evenodd" clip-rule="evenodd" d="M76.2046 0C61.0064 0 48.6862 11.9732 48.6862 26.7429V45.2572H96.3141V50.4001H27.5183C12.3203 50.4001 0 62.3734 0 77.1429V117.257C0 132.027 12.3203 144 27.5183 144H43.3942V121.372C43.3942 106.602 55.7146 94.6286 70.9128 94.6286H121.715C134.576 94.6286 145 84.4975 145 72.0004V26.7429C145 11.9732 132.68 0 117.482 0H76.2046ZM69.8545 32.9143C75.1151 32.9143 79.3797 28.7697 79.3797 23.6572C79.3797 18.5446 75.1151 14.4 69.8545 14.4C64.5931 14.4 60.3285 18.5446 60.3285 23.6572C60.3285 28.7697 64.5931 32.9143 69.8545 32.9143Z" fill="white"/>
<path fill-rule="evenodd" clip-rule="evenodd" d="M117.795 194C132.994 194 145.314 182.027 145.314 167.257V148.743H97.6859V143.6H166.482C181.68 143.6 194 131.627 194 116.857V76.7427C194 61.9731 181.68 50 166.482 50H150.606V72.6283C150.606 87.3986 138.285 99.3715 123.088 99.3715H72.2846C59.4246 99.3715 49 109.503 49 122V167.257C49 182.027 61.3206 194 76.5181 194H117.795ZM124.146 161.086C118.885 161.086 114.62 165.23 114.62 170.343C114.62 175.456 118.885 179.6 124.146 179.6C129.407 179.6 133.672 175.456 133.672 170.343C133.672 165.23 129.407 161.086 124.146 161.086Z" fill="white"/>
</svg>
